<svg version="1.2" xmlns="http://www.w3.org/2000/svg" viewBox="0 0 80 80" width="80" height="80">
	<title>pdf_icon</title>
	<style>
		.s0 { fill: #000000 } 
	</style>
	<g>
		<path class="s0" d="m25.4 47.9c-0.9 0-1.5-0.5-1.8-0.8l-0.1-0.3c-0.6-1.3-0.9-3.5 1.4-6 1.9-2.1 5.2-3.9 9-5.3 1.3-2.5 2.6-5.1 3.6-7.7-2.4-4-3.4-8.1-2.4-10.8 0.5-1.5 1.6-2.4 3-2.6h0.2c1.5 0 2.6 0.9 3 2.6 0.6 2.3-0.3 6.3-1.9 10.6q1 1.4 2.2 2.8 1.2 1.5 2.4 2.6c4.1-0.6 7.8-0.5 10 0.3 2.3 0.9 2.8 2.4 2.9 3.4v0.1c0 1.3-0.7 2.4-1.9 2.8-2.5 0.9-7.1-0.7-11.6-4.8-2.7 0.5-5.6 1.2-8.3 2.1-2.8 5.1-6 9.4-8.2 10.6-0.6 0.3-1.1 0.4-1.5 0.4zm-0.4-1.9c0.2 0.1 0.4 0.2 1.1-0.1 1.7-0.9 4.1-4 6.4-8-2.6 1.2-4.9 2.6-6.3 4.1-1.3 1.4-1.7 2.7-1.2 4zm20.8-11.5c3.7 3 7.1 4 8.6 3.5 0.3-0.1 0.7-0.4 0.7-1.2 0-0.3 0-1.2-1.7-1.8-1.7-0.7-4.5-0.8-7.6-0.5zm-7.1-5c-0.8 1.8-1.6 3.5-2.4 5.2 1.8-0.5 3.7-1 5.6-1.3q-0.8-0.9-1.6-1.8-0.9-1-1.6-2.1zm-0.4-13.3q-1.1 0.1-1.6 1.4c-0.6 1.7-0.1 4.8 1.6 8 1.2-3.4 1.8-6.4 1.3-8.2-0.2-1-0.7-1.2-1.3-1.2z"/>
		<path class="s0" d="m68.5 15.7l-14.2-14.2c-0.7-0.7-1.6-1.1-2.5-1.1h-37.8c-2 0-3.6 1.6-3.6 3.6v71.9c0 2 1.6 3.6 3.6 3.6h51.9c2 0 3.6-1.6 3.6-3.6v-57.7c0-1-0.3-1.9-1-2.5zm-54.5-13.5h37.8q0.1 0 0.2 0v12.4c0 1.8 1.5 3.3 3.4 3.3h12.3q0.1 0.2 0.1 0.3v35.5h-55.7v-49.7c0-1 0.9-1.8 1.9-1.8zm52.5 14h-11.1c-0.9 0-1.6-0.7-1.6-1.6v-11.2zm-0.6 61.6h-52c-1 0-1.8-0.9-1.8-1.9v-20.4h55.6v20.4c0 1-0.8 1.9-1.8 1.9z"/>
		<path class="s0" d="m29.5 59.8h-3.8c-0.5 0-0.9 0.4-0.9 0.9v7.1 4.8c0 0.5 0.4 0.9 0.9 0.9 0.4 0 0.8-0.4 0.8-0.9v-4h3c1.9 0 3.4-1.5 3.4-3.3v-2.2c0-1.8-1.5-3.3-3.4-3.3zm1.6 5.5c0 0.9-0.7 1.6-1.6 1.6h-3v-5.4h3c0.9 0 1.6 0.8 1.6 1.6z"/>
		<path class="s0" d="m40.3 73.5h-3.6c-0.5 0-0.9-0.4-0.9-0.9v-11.9c0-0.5 0.4-0.9 0.9-0.9h3.6c2 0 3.6 1.6 3.6 3.6v6.5c0 2-1.6 3.6-3.6 3.6zm-2.7-1.8h2.7c1 0 1.8-0.8 1.8-1.8v-6.5c0-1-0.8-1.9-1.8-1.9h-2.7z"/>
		<path class="s0" d="m54.3 59.8h-6.4c-0.5 0-0.9 0.4-0.9 0.9v11.9c0 0.5 0.4 0.9 0.9 0.9 0.5 0 0.9-0.4 0.9-0.9v-5.1h3.3c0.5 0 0.8-0.4 0.8-0.9 0-0.4-0.3-0.8-0.8-0.8h-3.3v-4.3h5.5c0.4 0 0.8-0.4 0.8-0.8 0-0.5-0.4-0.9-0.8-0.9z"/>
	</g>
</svg>